# xmcd
#
# Track frame offsets:
#	182
#	17430
#	33782
#	48342
#	63590
#	83475
#	99200
#	116940
#	131037
#	149607
#	166480
#	180170
#	193670
#	211645
#
# Disc length: 3014 seconds
#
# Revision: 2
# Processed by: cddbd v1.5.2PL0 Copyright (c) Steve Scherf et al.
# Submitted via: EasyCDDAExtractor 11.1.0.1
#
DISCID=b30bc40e
DTITLE=Paul Thorn - Ain't Love Strange
DYEAR=2000
DGENRE=Singer/Songwriter
TTITLE0=Ain't Love Strange
TTITLE1=Blue Stew
TTITLE2=I Have A Good Day
TTITLE3=Burn Down The Trailer Park
TTITLE4=What Do You Take Me For?
TTITLE5=Fabio and Liberace
TTITLE6=Mood Ring
TTITLE7=Black Rainbow
TTITLE8=Where Was I?
TTITLE9=A Lot Of Good Reasons
TTITLE10=Help Me Out, Hook Me Up
TTITLE11=Accept My Love
TTITLE12=Ain't Gonna Beg
TTITLE13=That's All I Know, Right Now
EXTD=
EXTT0=
EXTT1=
EXTT2=
EXTT3=
EXTT4=
EXTT5=
EXTT6=
EXTT7=
EXTT8=
EXTT9=
EXTT10=
EXTT11=
EXTT12=
EXTT13=
PLAYORDER=
